<?xml version="1.0" ?><!DOCTYPE svg  PUBLIC '-//W3C//DTD SVG 1.1//EN'  'http://www.w3.org/Graphics/SVG/1.1/DTD/svg11.dtd'><svg enable-background="new 0 0 128 128" height="128px" version="1.1" viewBox="0 0 128 128" width="128px" xml:space="preserve" xmlns="http://www.w3.org/2000/svg" xmlns:xlink="http://www.w3.org/1999/xlink"><g id="Layer_2"/><g id="Layer_1"><g><polygon fill="#231F20" points="54.848,98.831 69.582,95.859 69.582,88.192 54.848,91.165   "/><polygon fill="#231F20" points="54.848,84.328 69.582,81.358 69.582,73.689 54.848,76.663   "/><path d="    M54.689,33.253c0-4.113,3.332-7.448,7.444-7.448c4.113,0,7.448,3.335,7.448,7.448" fill="none" stroke="#231F20" stroke-linecap="round" stroke-linejoin="round" stroke-miterlimit="10" stroke-width="5"/><path d="    M85.066,67.008c-3.479,0-52.145,0-52.145,0c-3.246,0-5.879-2.631-5.879-5.881V41.138c0-3.247,2.633-5.878,5.879-5.878    c0,0,48.936,0,52.279,0c3.341,0,6.698,2.313,6.698,2.313s10.038,9.587,11.49,10.922c1.45,1.335,1.395,3.993,0,5.314    c-1.397,1.322-11.34,10.739-11.34,10.739S89.168,67.008,85.066,67.008z" fill="none" stroke="#231F20" stroke-linecap="round" stroke-linejoin="round" stroke-miterlimit="10" stroke-width="5"/><path d="    M70.952,67.597v32.335c0,3.249-2.633,5.882-5.879,5.882h-5.878c-3.249,0-5.881-2.633-5.881-5.882V67.597" fill="none" stroke="#231F20" stroke-linecap="round" stroke-linejoin="round" stroke-miterlimit="10" stroke-width="5"/></g></g></svg>